<svg width="96" height="96" viewBox="0 0 96 96" fill="none" xmlns="http://www.w3.org/2000/svg">
<path d="M0 48C0 21.4903 21.4903 0 48 0C74.5097 0 96 21.4903 96 48C96 74.5097 74.5097 96 48 96C21.4903 96 0 74.5097 0 48Z" fill="#EFF6FF"/>
<path d="M0.25 48C0.25 21.6284 21.6284 0.25 48 0.25C74.3716 0.25 95.75 21.6284 95.75 48C95.75 74.3716 74.3716 95.75 48 95.75C21.6284 95.75 0.25 74.3716 0.25 48Z" stroke="black" stroke-opacity="0.1" stroke-width="0.5"/>
<path d="M24.2037 61V56.5511L24.9452 56.4872C25.8997 56.4105 26.671 56.0483 27.2591 55.4006C27.8472 54.7443 28.2861 53.7003 28.5759 52.2685C28.8742 50.8281 29.0659 48.8935 29.1511 46.4645L29.5858 34.8182H47.3557V61H41.9736V39.2543H34.725L34.3159 48.3693C34.1796 51.3011 33.8301 53.696 33.2676 55.554C32.7136 57.4119 31.8273 58.7841 30.6085 59.6705C29.3983 60.5568 27.7406 61 25.6355 61H24.2037ZM51.1276 61V34.8182H61.6106C63.5367 34.8182 65.1432 35.1037 66.4302 35.6747C67.7171 36.2457 68.6844 37.0384 69.3322 38.0526C69.9799 39.0582 70.3038 40.2173 70.3038 41.5298C70.3038 42.5526 70.0992 43.4517 69.6901 44.2273C69.281 44.9943 68.7185 45.625 68.0026 46.1193C67.2952 46.6051 66.4856 46.9503 65.5736 47.1548V47.4105C66.5708 47.4531 67.504 47.7344 68.3734 48.2543C69.2512 48.7741 69.9628 49.5028 70.5083 50.4403C71.0538 51.3693 71.3265 52.4773 71.3265 53.7642C71.3265 55.1534 70.9813 56.3935 70.291 57.4844C69.6091 58.5668 68.5992 59.4233 67.2611 60.054C65.9231 60.6847 64.2739 61 62.3137 61H51.1276ZM56.6631 56.4744H61.1759C62.7185 56.4744 63.8435 56.1804 64.5509 55.5923C65.2583 54.9957 65.612 54.2031 65.612 53.2145C65.612 52.4901 65.4373 51.8509 65.0878 51.2969C64.7384 50.7429 64.2398 50.3082 63.5921 49.9929C62.9529 49.6776 62.1901 49.5199 61.3038 49.5199H56.6631V56.4744ZM56.6631 45.7741H60.7668C61.5253 45.7741 62.1986 45.642 62.7867 45.3778C63.3833 45.1051 63.852 44.7216 64.193 44.2273C64.5424 43.733 64.7171 43.1406 64.7171 42.4503C64.7171 41.5043 64.3805 40.7415 63.7072 40.1619C63.0424 39.5824 62.0964 39.2926 60.8691 39.2926H56.6631V45.7741Z" fill="#2563EB"/>
</svg>
