<svg width="20" height="20" viewBox="0 0 20 20" fill="none" xmlns="http://www.w3.org/2000/svg">
<path d="M17.7594 5.73233L14.268 2.24171C14.1519 2.1256 14.0141 2.0335 13.8624 1.97067C13.7107 1.90783 13.5482 1.87549 13.384 1.87549C13.2198 1.87549 13.0572 1.90783 12.9056 1.97067C12.7539 2.0335 12.6161 2.1256 12.5 2.24171L2.86641 11.8753C2.74983 11.991 2.65741 12.1286 2.59451 12.2803C2.5316 12.432 2.49948 12.5947 2.50001 12.7589V16.2503C2.50001 16.5818 2.6317 16.8998 2.86612 17.1342C3.10054 17.3686 3.41849 17.5003 3.75001 17.5003H16.875C17.0408 17.5003 17.1997 17.4345 17.3169 17.3172C17.4342 17.2 17.5 17.0411 17.5 16.8753C17.5 16.7095 17.4342 16.5506 17.3169 16.4334C17.1997 16.3161 17.0408 16.2503 16.875 16.2503H9.00938L17.7594 7.5003C17.8755 7.38422 17.9676 7.24641 18.0304 7.09474C18.0933 6.94306 18.1256 6.78049 18.1256 6.61632C18.1256 6.45214 18.0933 6.28957 18.0304 6.13789C17.9676 5.98622 17.8755 5.84841 17.7594 5.73233ZM7.24141 16.2503H3.75001V12.7589L10.625 5.88389L14.1164 9.3753L7.24141 16.2503ZM15 8.49171L11.5094 5.0003L13.3844 3.1253L16.875 6.61671L15 8.49171Z" fill="white"/>
</svg>
