<svg width="24" height="24" viewBox="0 0 24 24" fill="none" xmlns="http://www.w3.org/2000/svg">
<path d="M21.3974 7.14763L9.39738 19.1476C9.29192 19.253 9.14895 19.3121 8.99988 19.3121C8.85082 19.3121 8.70785 19.253 8.60239 19.1476L3.35238 13.8976C3.25302 13.791 3.19893 13.65 3.2015 13.5042C3.20407 13.3585 3.26311 13.2195 3.36617 13.1164C3.46923 13.0134 3.60827 12.9543 3.75399 12.9517C3.89972 12.9492 4.04075 13.0033 4.14739 13.1026L8.99988 17.9542L20.6024 6.35263C20.709 6.25327 20.8501 6.19918 20.9958 6.20175C21.1415 6.20432 21.2805 6.26335 21.3836 6.36641C21.4867 6.46947 21.5457 6.60851 21.5483 6.75424C21.5508 6.89996 21.4967 7.041 21.3974 7.14763Z" fill="#22C55E"/>
</svg>
