<svg width="24" height="24" viewBox="0 0 24 24" fill="none" xmlns="http://www.w3.org/2000/svg">
<path d="M14.2506 6.74961H12.0006V2.99961C12.0007 2.85119 11.9568 2.70607 11.8744 2.58263C11.792 2.45918 11.6748 2.36296 11.5377 2.30615C11.4006 2.24933 11.2497 2.23448 11.1041 2.26347C10.9585 2.29245 10.8249 2.36398 10.72 2.46899L1.71997 11.469C1.65023 11.5386 1.59491 11.6214 1.55717 11.7124C1.51943 11.8035 1.5 11.9011 1.5 11.9996C1.5 12.0982 1.51943 12.1958 1.55717 12.2868C1.59491 12.3779 1.65023 12.4606 1.71997 12.5302L10.72 21.5302C10.8249 21.6353 10.9585 21.7068 11.1041 21.7358C11.2497 21.7648 11.4006 21.7499 11.5377 21.6931C11.6748 21.6363 11.792 21.54 11.8744 21.4166C11.9568 21.2932 12.0007 21.148 12.0006 20.9996V17.2496H14.2506C14.4495 17.2496 14.6403 17.1706 14.7809 17.0299C14.9216 16.8893 15.0006 16.6985 15.0006 16.4996V7.49961C15.0006 7.3007 14.9216 7.10994 14.7809 6.96928C14.6403 6.82863 14.4495 6.74961 14.2506 6.74961ZM13.5006 15.7496H11.2506C11.0517 15.7496 10.8609 15.8286 10.7203 15.9693C10.5796 16.1099 10.5006 16.3007 10.5006 16.4996V19.1893L3.3109 11.9996L10.5006 4.80993V7.49961C10.5006 7.69853 10.5796 7.88929 10.7203 8.02994C10.8609 8.1706 11.0517 8.24961 11.2506 8.24961H13.5006V15.7496ZM21.0006 7.49961V16.4996C21.0006 16.6985 20.9216 16.8893 20.7809 17.0299C20.6403 17.1706 20.4495 17.2496 20.2506 17.2496C20.0517 17.2496 19.8609 17.1706 19.7203 17.0299C19.5796 16.8893 19.5006 16.6985 19.5006 16.4996V7.49961C19.5006 7.3007 19.5796 7.10994 19.7203 6.96928C19.8609 6.82863 20.0517 6.74961 20.2506 6.74961C20.4495 6.74961 20.6403 6.82863 20.7809 6.96928C20.9216 7.10994 21.0006 7.3007 21.0006 7.49961ZM18.0006 7.49961V16.4996C18.0006 16.6985 17.9216 16.8893 17.7809 17.0299C17.6403 17.1706 17.4495 17.2496 17.2506 17.2496C17.0517 17.2496 16.8609 17.1706 16.7203 17.0299C16.5796 16.8893 16.5006 16.6985 16.5006 16.4996V7.49961C16.5006 7.3007 16.5796 7.10994 16.7203 6.96928C16.8609 6.82863 17.0517 6.74961 17.2506 6.74961C17.4495 6.74961 17.6403 6.82863 17.7809 6.96928C17.9216 7.10994 18.0006 7.3007 18.0006 7.49961Z" fill="#BDBDBD"/>
</svg>
