<svg width="24" height="24" viewBox="0 0 24 24" fill="none" xmlns="http://www.w3.org/2000/svg">
<path d="M23.0466 11.4028C22.9509 11.2347 22.8227 11.0874 22.6694 10.9694C22.5162 10.8514 22.341 10.7652 22.154 10.7156C21.4758 10.5411 20.775 10.4709 20.0756 10.5075C20.4506 8.64656 20.1694 7.17469 19.8881 6.30188C19.7734 5.94339 19.5294 5.64041 19.2036 5.45187C18.8779 5.26334 18.4936 5.20275 18.1256 5.28188C17.1716 5.49434 16.2645 5.87942 15.449 6.41812C14.8518 5.1981 13.9823 4.13161 12.9075 3.30094C12.647 3.1056 12.3302 3 12.0047 3C11.6791 3 11.3623 3.1056 11.1019 3.30094C10.0254 4.13108 9.15419 5.19762 8.55561 6.41812C7.74013 5.87942 6.83303 5.49434 5.87905 5.28188C5.51116 5.20234 5.12684 5.26278 4.80111 5.45139C4.47539 5.63999 4.23165 5.94322 4.11749 6.30188C3.83624 7.17469 3.55499 8.64563 3.92436 10.5075C3.225 10.4709 2.52415 10.5411 1.84593 10.7156C1.65898 10.7652 1.48377 10.8514 1.33053 10.9694C1.17729 11.0874 1.04909 11.2347 0.953425 11.4028C0.85343 11.5749 0.788671 11.7651 0.762918 11.9624C0.737166 12.1598 0.750935 12.3602 0.803425 12.5522C1.12124 13.7316 2.09718 15.9731 5.05311 17.7394C8.00905 19.5056 10.6059 19.5 12.0047 19.5C13.4034 19.5 16.005 19.5 18.9422 17.7394C21.8981 15.9731 22.8741 13.7316 23.1919 12.5522C23.2451 12.3605 23.2596 12.1602 23.2346 11.9629C23.2097 11.7656 23.1458 11.5752 23.0466 11.4028ZM5.82186 16.4522C3.3253 14.9597 2.51436 13.1297 2.24999 12.1594C2.93975 11.9891 3.65566 11.9518 4.35936 12.0497C4.5943 12.679 4.88123 13.2877 5.21718 13.8694C6.04204 15.2915 7.1227 16.5489 8.40468 17.5781C7.49816 17.3175 6.6298 16.9389 5.82186 16.4522ZM12 17.85C11.1253 17.1994 8.99999 15.2034 8.99999 11.1722C8.99999 7.19062 11.0981 5.17875 12 4.5C12.9019 5.18062 15 7.1925 15 11.1741C15 15.2034 12.8747 17.1994 12 17.85ZM21.75 12.1613C21.4903 13.1213 20.6812 14.9559 18.1791 16.4522C17.3711 16.9386 16.5027 17.3169 15.5962 17.5772C16.8782 16.5479 17.9589 15.2906 18.7837 13.8684C19.1197 13.2867 19.4066 12.6781 19.6416 12.0487C20.3451 11.9518 21.0606 11.9897 21.75 12.1603V12.1613Z" fill="#EF4444"/>
</svg>
