<svg width="20" height="20" viewBox="0 0 20 20" fill="none" xmlns="http://www.w3.org/2000/svg">
<path d="M12.1876 16.25C12.1876 16.4158 12.1217 16.5747 12.0045 16.6919C11.8873 16.8092 11.7283 16.875 11.5626 16.875H9.37507C9.20931 16.875 9.05034 16.8092 8.93313 16.6919C8.81592 16.5747 8.75007 16.4158 8.75007 16.25V11.875C8.75007 11.7092 8.81592 11.5503 8.93313 11.4331C9.05034 11.3158 9.20931 11.25 9.37507 11.25C9.54083 11.25 9.6998 11.3158 9.81701 11.4331C9.93422 11.5503 10.0001 11.7092 10.0001 11.875V15.625H11.5626C11.7283 15.625 11.8873 15.6908 12.0045 15.8081C12.1217 15.9253 12.1876 16.0842 12.1876 16.25ZM7.23835 11.3664C7.17156 11.3187 7.09603 11.2846 7.01607 11.2661C6.9361 11.2476 6.85328 11.245 6.77232 11.2585C6.69135 11.272 6.61384 11.3013 6.54421 11.3447C6.47457 11.3882 6.41418 11.4449 6.36647 11.5117L5.31257 12.9875L4.25866 11.5117C4.21266 11.4409 4.15278 11.3802 4.08266 11.3332C4.01254 11.2862 3.93362 11.2539 3.85066 11.2382C3.7677 11.2225 3.68243 11.2238 3.59999 11.242C3.51754 11.2602 3.43964 11.2949 3.37098 11.344C3.30231 11.3931 3.24431 11.4556 3.20048 11.5278C3.15664 11.5999 3.12787 11.6802 3.11592 11.7638C3.10396 11.8474 3.10906 11.9325 3.13091 12.0141C3.15276 12.0956 3.1909 12.1719 3.24304 12.2383L4.5446 14.0625L3.24148 15.8867C3.15378 16.0217 3.12151 16.1852 3.15138 16.3434C3.18126 16.5015 3.27099 16.642 3.40187 16.7356C3.53276 16.8293 3.69472 16.8688 3.85403 16.846C4.01334 16.8232 4.15772 16.7399 4.2571 16.6133L5.31257 15.1375L6.36647 16.6133C6.46586 16.7399 6.61024 16.8232 6.76954 16.846C6.92885 16.8688 7.09081 16.8293 7.2217 16.7356C7.35259 16.642 7.44231 16.5015 7.47219 16.3434C7.50207 16.1852 7.4698 16.0217 7.3821 15.8867L6.08054 14.0625L7.38366 12.2383C7.43137 12.1715 7.46546 12.096 7.48397 12.016C7.50249 11.936 7.50508 11.8532 7.49158 11.7722C7.47809 11.6913 7.44878 11.6138 7.40533 11.5441C7.36188 11.4745 7.30514 11.4141 7.23835 11.3664ZM14.968 13.3836C14.6555 13.293 14.3321 13.2 14.1516 13.0836C14.054 13.0195 14.0555 13.0055 14.0641 12.9352C14.0653 12.8783 14.0801 12.8226 14.1073 12.7727C14.1345 12.7229 14.1733 12.6802 14.2204 12.6484C14.5798 12.4047 15.4188 12.5141 15.7688 12.6047C15.9292 12.6469 16.0997 12.6236 16.243 12.54C16.3862 12.4564 16.4903 12.3194 16.5325 12.159C16.5747 11.9986 16.5514 11.8281 16.4678 11.6848C16.3842 11.5416 16.2472 11.4375 16.0868 11.3953C15.9219 11.3523 14.4462 10.9875 13.5219 11.6109C13.3271 11.7426 13.1634 11.9155 13.0426 12.1173C12.9218 12.3191 12.8467 12.5449 12.8227 12.7789C12.6665 14.0195 13.8891 14.3734 14.6196 14.5844C15.5618 14.857 15.6446 14.9688 15.618 15.1773C15.5938 15.3656 15.5196 15.4375 15.4501 15.4844C15.0907 15.7234 14.2657 15.6055 13.9235 15.5117C13.7634 15.4673 13.5923 15.4882 13.4477 15.57C13.3761 15.6105 13.3131 15.6647 13.2625 15.7295C13.2118 15.7943 13.1744 15.8684 13.1524 15.9477C13.1304 16.0269 13.1242 16.1097 13.1342 16.1914C13.1442 16.273 13.1702 16.3519 13.2107 16.4235C13.2924 16.5681 13.4283 16.6743 13.5883 16.7188C13.9757 16.8208 14.3745 16.8733 14.7751 16.875C15.2298 16.875 15.736 16.7969 16.1415 16.5266C16.3415 16.3935 16.5096 16.2178 16.6336 16.0121C16.7576 15.8064 16.8344 15.5757 16.8587 15.3367C17.0313 13.9844 15.7407 13.607 14.968 13.3836ZM3.12507 8.75V3.125C3.12507 2.79348 3.25676 2.47554 3.49119 2.24112C3.72561 2.0067 4.04355 1.875 4.37507 1.875H11.8751C11.9572 1.87494 12.0385 1.89105 12.1144 1.92241C12.1902 1.95378 12.2592 1.99979 12.3173 2.05781L16.6923 6.43281C16.7503 6.4909 16.7963 6.55985 16.8277 6.63572C16.859 6.71159 16.8751 6.7929 16.8751 6.875V8.75C16.8751 8.91576 16.8092 9.07473 16.692 9.19194C16.5748 9.30915 16.4158 9.375 16.2501 9.375C16.0843 9.375 15.9253 9.30915 15.8081 9.19194C15.6909 9.07473 15.6251 8.91576 15.6251 8.75V7.5H11.8751C11.7093 7.5 11.5503 7.43415 11.4331 7.31694C11.3159 7.19973 11.2501 7.04076 11.2501 6.875V3.125H4.37507V8.75C4.37507 8.91576 4.30922 9.07473 4.19201 9.19194C4.0748 9.30915 3.91583 9.375 3.75007 9.375C3.58431 9.375 3.42534 9.30915 3.30813 9.19194C3.19092 9.07473 3.12507 8.91576 3.12507 8.75ZM12.5001 6.25H14.7407L12.5001 4.00859V6.25Z" fill="black" fill-opacity="0.8"/>
</svg>
