<svg width="17" height="16" viewBox="0 0 17 16" fill="none" xmlns="http://www.w3.org/2000/svg">
<path d="M14.7069 4.5861L11.9144 1.79297C11.8215 1.70009 11.7113 1.62641 11.5899 1.57614C11.4686 1.52587 11.3385 1.5 11.2072 1.5C11.0759 1.5 10.9458 1.52587 10.8245 1.57614C10.7031 1.62641 10.5929 1.70009 10.5 1.79297L2.79313 9.50047C2.69987 9.593 2.62593 9.70313 2.5756 9.82448C2.52528 9.94584 2.49959 10.076 2.50001 10.2073V13.0005C2.50001 13.2657 2.60536 13.52 2.7929 13.7076C2.98043 13.8951 3.23479 14.0005 3.5 14.0005H6.29313C6.4245 14.0009 6.55464 13.9752 6.67599 13.9249C6.79735 13.8746 6.90748 13.8006 7 13.7073L14.7069 6.00047C14.7998 5.90761 14.8734 5.79736 14.9237 5.67602C14.974 5.55468 14.9999 5.42463 14.9999 5.29329C14.9999 5.16195 14.974 5.03189 14.9237 4.91055C14.8734 4.78921 14.7998 4.67896 14.7069 4.5861ZM6.29313 13.0005H3.5V10.2073L9 4.70735L11.7931 7.50047L6.29313 13.0005ZM12.5 6.79297L9.70688 4.00047L11.2069 2.50047L14 5.29297L12.5 6.79297Z" fill="black" fill-opacity="0.8"/>
</svg>
