<svg width="24" height="24" viewBox="0 0 24 24" fill="none" xmlns="http://www.w3.org/2000/svg">
<path d="M9.74941 6.74961H11.9994V2.99961C11.9993 2.85119 12.0432 2.70607 12.1256 2.58263C12.208 2.45918 12.3252 2.36296 12.4623 2.30615C12.5994 2.24933 12.7503 2.23448 12.8959 2.26347C13.0415 2.29245 13.1751 2.36398 13.28 2.46899L22.28 11.469C22.3498 11.5386 22.4051 11.6214 22.4428 11.7124C22.4806 11.8035 22.5 11.9011 22.5 11.9996C22.5 12.0982 22.4806 12.1958 22.4428 12.2868C22.4051 12.3779 22.3498 12.4606 22.28 12.5302L13.28 21.5302C13.1751 21.6353 13.0415 21.7068 12.8959 21.7358C12.7503 21.7648 12.5994 21.7499 12.4623 21.6931C12.3252 21.6363 12.208 21.54 12.1256 21.4166C12.0432 21.2932 11.9993 21.148 11.9994 20.9996V17.2496H9.74941C9.5505 17.2496 9.35973 17.1706 9.21908 17.0299C9.07843 16.8893 8.99941 16.6985 8.99941 16.4996V7.49961C8.99941 7.3007 9.07843 7.10994 9.21908 6.96928C9.35973 6.82863 9.5505 6.74961 9.74941 6.74961ZM10.4994 15.7496H12.7494C12.9483 15.7496 13.1391 15.8286 13.2797 15.9693C13.4204 16.1099 13.4994 16.3007 13.4994 16.4996V19.1893L20.6891 11.9996L13.4994 4.80993V7.49961C13.4994 7.69853 13.4204 7.88929 13.2797 8.02994C13.1391 8.1706 12.9483 8.24961 12.7494 8.24961H10.4994V15.7496ZM2.99941 7.49961V16.4996C2.99941 16.6985 3.07843 16.8893 3.21908 17.0299C3.35973 17.1706 3.5505 17.2496 3.74941 17.2496C3.94832 17.2496 4.13909 17.1706 4.27974 17.0299C4.42039 16.8893 4.49941 16.6985 4.49941 16.4996V7.49961C4.49941 7.3007 4.42039 7.10994 4.27974 6.96928C4.13909 6.82863 3.94832 6.74961 3.74941 6.74961C3.5505 6.74961 3.35973 6.82863 3.21908 6.96928C3.07843 7.10994 2.99941 7.3007 2.99941 7.49961ZM5.99941 7.49961V16.4996C5.99941 16.6985 6.07843 16.8893 6.21908 17.0299C6.35973 17.1706 6.5505 17.2496 6.74941 17.2496C6.94832 17.2496 7.13909 17.1706 7.27974 17.0299C7.42039 16.8893 7.49941 16.6985 7.49941 16.4996V7.49961C7.49941 7.3007 7.42039 7.10994 7.27974 6.96928C7.13909 6.82863 6.94832 6.74961 6.74941 6.74961C6.5505 6.74961 6.35973 6.82863 6.21908 6.96928C6.07843 7.10994 5.99941 7.3007 5.99941 7.49961Z" fill="#BDBDBD"/>
</svg>
