<svg width="14" height="16" viewBox="0 0 14 16" fill="none" xmlns="http://www.w3.org/2000/svg">
<path d="M12.9563 7.08084C12.8684 7.16862 12.7492 7.21792 12.625 7.21792C12.5008 7.21792 12.3817 7.16862 12.2938 7.08084L7.46878 2.25662V14.8746C7.46878 14.9989 7.41939 15.1181 7.33148 15.206C7.24358 15.294 7.12435 15.3433 7.00003 15.3433C6.87571 15.3433 6.75648 15.294 6.66857 15.206C6.58066 15.1181 6.53128 14.9989 6.53128 14.8746V2.25662L1.70628 7.08084C1.61742 7.16364 1.49989 7.20871 1.37845 7.20657C1.25701 7.20443 1.14115 7.15523 1.05526 7.06935C0.969379 6.98347 0.920184 6.8676 0.918042 6.74616C0.915899 6.62473 0.960976 6.5072 1.04378 6.41834L6.66878 0.793337C6.75667 0.705556 6.87581 0.65625 7.00003 0.65625C7.12425 0.65625 7.24339 0.705556 7.33128 0.793337L12.9563 6.41834C13.0441 6.50623 13.0934 6.62537 13.0934 6.74959C13.0934 6.87381 13.0441 6.99295 12.9563 7.08084Z" fill="black" fill-opacity="0.5"/>
</svg>
